<svg xmlns:dc="http://purl.org/dc/elements/1.1/" xmlns:cc="http://creativecommons.org/ns#" xmlns:rdf="http://www.w3.org/1999/02/22-rdf-syntax-ns#" xmlns:svg="http://www.w3.org/2000/svg" xmlns="http://www.w3.org/2000/svg" xmlns:sodipodi="http://sodipodi.sourceforge.net/DTD/sodipodi-0.dtd" xmlns:inkscape="http://www.inkscape.org/namespaces/inkscape" viewBox="0 0 406.64699 406.72684" version="1.1" x="0px" y="0px"><g transform="translate(-207.12551,-386.69824)"><path style="" d="m 410.44851,386.69824 c -112.096,0 -203.323,91.2663 -203.323,203.4035 0,112.1379 91.227,203.32335 203.323,203.32335 112.139,0 203.324,-91.18545 203.324,-203.32335 0,-112.1372 -91.185,-203.4035 -203.324,-203.4035 z m 0,13.5924 c 44.202,0 84.886,15.3433 117.156,40.7781 0.872,5.1783 4.461,11.6204 9.143,19.8226 1.531,2.7345 3.686,6.5193 5.258,9.7092 -3.438,-0.9517 -7.577,-2.3225 -10.517,-3.3178 -14.748,-4.8882 -24.566,-8.1335 -29.289,-1.1303 -4.681,7.0009 2.068,14.8543 12.217,26.6191 2.071,2.4026 4.843,5.6366 7.039,8.495 -3.562,-0.2553 -7.775,-0.7584 -10.922,-1.1303 -15.493,-1.9469 -25.735,-3.1793 -28.966,4.6117 -3.19,7.7882 4.891,14.056 17.152,23.6254 2.527,1.9469 5.965,4.5968 8.658,6.958 -3.522,0.4156 -7.774,0.8057 -10.923,1.0536 -15.575,1.1595 -25.893,1.8704 -27.508,10.1944 -1.66,8.2435 7.523,12.8633 21.359,19.8226 2.819,1.4512 6.723,3.3981 9.872,5.1784 -3.355,1.1193 -7.455,2.2459 -10.438,3.0736 -15.078,4.184 -25.082,6.9615 -25.082,15.4533 0,8.4921 10.004,11.2696 25.082,15.4536 2.983,0.8715 7.163,1.9543 10.518,3.0735 -3.147,1.783 -7.134,3.8488 -9.952,5.2593 -13.836,6.9595 -22.975,11.5789 -21.359,19.8227 1.654,8.3262 11.933,9.0343 27.508,10.194 3.106,0.2553 7.483,0.6381 11.004,1.0537 -2.691,2.3626 -6.131,5.0927 -8.657,7.0397 -12.22,9.569 -20.303,15.9178 -17.072,23.7058 3.274,7.7877 13.514,6.4782 28.965,4.5312 3.107,-0.3718 7.441,-0.8459 11.003,-1.1339 -2.194,2.8584 -5.048,6.1737 -7.119,8.5764 -10.108,11.8063 -16.737,19.6596 -12.056,26.619 4.681,7.00105 14.461,3.71595 29.209,-1.2141 2.981,-0.9954 7.16,-2.3225 10.598,-3.3178 -1.575,3.2303 -3.686,7.0141 -5.259,9.78935 -4.308,7.7054 -7.7,13.8794 -8.819,18.9331 -32.394,25.7665 -73.27,41.2633 -117.803,41.2633 -44.863,0.037 -86.173,-15.73 -118.692,-41.9109 -0.996,-5.0952 -4.546,-11.3042 -9.062,-19.175 -1.531,-2.69085 -3.687,-6.47965 -5.259,-9.62825 3.398,0.9114 7.497,2.2822 10.437,3.2339 14.748,4.8469 24.488,8.05285 29.127,1.0536 4.64,-7.0009 -2.031,-14.692 -12.135,-26.4568 -2.071,-2.3625 -4.884,-5.5975 -7.121,-8.4144 3.523,0.2552 7.777,0.7584 10.842,1.1302 15.41,1.8631 25.695,3.1756 28.884,-4.6117 3.19,-7.7881 -4.851,-14.058 -17.071,-23.5444 -2.527,-1.9068 -5.966,-4.5159 -8.658,-6.877 3.523,-0.4156 7.777,-0.8021 10.843,-1.0536 15.533,-1.1595 25.811,-1.9106 27.427,-10.1949 1.659,-8.2434 -7.524,-12.8235 -21.36,-19.7416 -2.774,-1.4074 -6.682,-3.3543 -9.789,-5.0974 3.314,-1.0756 7.414,-2.2059 10.356,-2.9933 14.995,-4.1841 25,-6.9616 25,-15.4537 0,-8.4922 -9.921,-11.2284 -25,-15.4538 -2.943,-0.8275 -7.083,-1.9541 -10.438,-3.0735 3.107,-1.7828 7.054,-3.7695 9.871,-5.1779 13.795,-6.9594 22.937,-11.5398 21.279,-19.7421 -1.615,-8.2851 -11.893,-9.0736 -27.428,-10.275 -3.106,-0.2188 -7.401,-0.5141 -10.923,-0.9698 2.735,-2.3626 6.172,-5.0526 8.658,-6.9579 12.179,-9.5279 20.302,-15.8373 17.071,-23.6253 -3.23,-7.7877 -13.433,-6.5176 -28.884,-4.6118 -3.066,0.3719 -7.36,0.8823 -10.922,1.1302 2.238,-2.8183 4.968,-6.0924 7.039,-8.495 10.107,-11.7648 16.817,-19.5375 12.136,-26.5384 -4.681,-7.0006 -14.502,-3.836 -29.209,1.0536 -2.981,0.9953 -7.078,2.3662 -10.517,3.3178 1.575,-3.1902 3.724,-6.9751 5.259,-9.7091 4.142,-7.2492 7.454,-13.1148 8.738,-17.9615 32.643,-26.5949 74.224,-42.6389 119.501,-42.6389 z m 145.636,68.2871 c 27.506,32.9326 44.095,75.2544 44.095,121.4434 0,45.6917 -16.318,87.6244 -43.286,120.3916 1.782,-4.8465 1.921,-8.8239 -0.73,-12.0549 -5.011,-6.0483 -14.391,-2.8621 -28.641,1.8594 -2.195,0.7474 -5.034,1.6005 -7.767,2.4281 1.782,-2.1948 3.687,-4.328 5.178,-6.0678 9.776,-11.4745 16.35,-19.0126 12.622,-25.972 -3.729,-6.9177 -13.648,-5.7474 -28.561,-3.8815 -2.319,0.2918 -5.193,0.6418 -8.01,0.8897 2.154,-1.7391 4.449,-3.5256 6.23,-4.9356 11.848,-9.3204 19.715,-15.478 17.395,-23.0586 -2.319,-7.498 -12.149,-8.2672 -27.104,-9.3854 -2.318,-0.1824 -5.274,-0.3282 -8.092,-0.6453 2.444,-1.2835 5.011,-2.6471 7.04,-3.6424 13.505,-6.8354 22.39,-11.3047 21.602,-19.1755 -0.787,-7.7877 -10.26,-10.4642 -24.677,-14.4824 -2.318,-0.6636 -5.234,-1.3964 -8.01,-2.2641 2.775,-0.8713 5.773,-1.7246 8.01,-2.3443 14.458,-3.977 23.891,-6.6141 24.677,-14.4016 0.788,-7.8708 -8.097,-12.3819 -21.602,-19.1757 -1.987,-0.9954 -4.514,-2.2387 -6.958,-3.4783 2.775,-0.2917 5.65,-0.4813 7.929,-0.6453 14.954,-1.1193 24.867,-1.8886 27.105,-9.3858 2.318,-7.5394 -5.507,-13.6569 -17.396,-22.9781 -1.779,-1.3673 -4.118,-3.194 -6.23,-4.9352 2.775,0.2552 5.691,0.6782 7.929,0.9698 14.913,1.823 24.752,3.037 28.48,-3.8815 3.728,-6.9594 -2.764,-14.4572 -12.621,-25.8905 -1.452,-1.6991 -3.362,-3.9146 -5.098,-6.068 2.651,0.8277 5.451,1.7246 7.605,2.4282 14.292,4.7639 23.751,7.8695 28.723,1.7793 2.858,-3.4783 2.438,-7.8796 0.182,-13.4306 z m -294.507,4.3689 c -0.872,3.5621 -0.536,6.6156 1.538,9.1426 4.972,6.0478 14.352,2.8985 28.561,-1.7829 2.195,-0.7438 4.993,-1.5969 7.687,-2.4282 -1.784,2.1146 -3.687,4.3282 -5.179,6.068 -9.776,11.3921 -16.269,18.973 -12.54,25.8909 3.728,6.9178 13.527,5.6669 28.398,3.8026 2.279,-0.2551 5.154,-0.6015 7.929,-0.8895 -2.155,1.7391 -4.368,3.4892 -6.149,4.8542 -11.848,9.2793 -19.715,15.4388 -17.395,22.9782 2.279,7.4978 12.152,8.2671 27.024,9.3858 2.318,0.1822 5.234,0.3718 8.009,0.6453 -2.442,1.2833 -4.97,2.5631 -6.958,3.5584 -13.505,6.7939 -22.39,11.2237 -21.603,19.0946 0.788,7.7873 10.303,10.4638 24.678,14.4821 2.278,0.6234 5.114,1.4364 7.848,2.2677 -2.734,0.8276 -5.611,1.6443 -7.848,2.2641 -14.375,3.977 -23.89,6.6141 -24.678,14.4018 -0.787,7.8293 8.14,12.342 21.603,19.0942 1.987,0.9954 4.475,2.2386 6.877,3.4782 -2.735,0.2917 -5.651,0.4813 -7.848,0.6454 -14.912,1.1193 -24.786,1.8886 -27.023,9.385 -2.279,7.5398 5.587,13.6596 17.476,22.8972 1.74,1.3673 3.956,3.0335 6.069,4.7737 -2.695,-0.2917 -5.531,-0.6417 -7.768,-0.8896 -14.872,-1.823 -24.793,-3.0334 -28.479,3.8814 -3.687,6.9594 2.799,14.4989 12.702,25.8909 1.452,1.6991 3.278,3.7944 5.017,5.9062 -2.611,-0.7876 -5.291,-1.6808 -7.445,-2.3444 -14.25,-4.681 -23.669,-7.7889 -28.64,-1.699 -2.364,2.8985 -2.418,6.4132 -1.054,10.6797 -25.974,-32.477 -41.668,-73.5091 -41.668,-118.2069 0,-44.3249 15.382,-84.9663 40.859,-117.2365 z" fill="#000000"></path></g></svg>