<svg xmlns:dc="http://purl.org/dc/elements/1.1/" xmlns:cc="http://creativecommons.org/ns#" xmlns:rdf="http://www.w3.org/1999/02/22-rdf-syntax-ns#" xmlns:svg="http://www.w3.org/2000/svg" xmlns="http://www.w3.org/2000/svg" xmlns:sodipodi="http://sodipodi.sourceforge.net/DTD/sodipodi-0.dtd" xmlns:inkscape="http://www.inkscape.org/namespaces/inkscape" viewBox="0 0 386.29 386.3306" version="1.1" x="0px" y="0px"><g transform="translate(-157.13417,-366.05633)"><path style="" d="m 350.25717,366.05633 c -106.462,0 -193.123,86.6615 -193.123,193.1652 0,106.5039 86.661,193.1654 193.123,193.1654 106.505,0 193.167,-86.6615 193.167,-193.1654 0,-106.5037 -86.62,-193.1652 -193.167,-193.1652 z m 6.463,186.7445 0,-173.6126 c 45.029,1.6152 85.791,19.7183 116.57,48.5086 -31.979,34.2999 -50.124,78.2106 -51.656,125.104 l -64.914,0 z m -12.841,0 -65.659,0 c -1.532,-46.7276 -19.594,-90.5139 -51.327,-124.7311 30.821,-29.0392 71.75,-47.2659 116.986,-48.8815 l 0,173.6126 z m -78.459,0 -95.113,0 c 1.532,-44.532 19.304,-84.9217 47.556,-115.6176 29.329,31.8145 45.983,72.3697 47.557,115.6176 z m 0,12.8416 c -1.532,43.2479 -18.186,83.7616 -47.516,115.6176 -28.293,-30.6546 -46.022,-71.0856 -47.555,-115.6176 l 95.071,0 z m 12.8,0 65.659,0 0,173.5714 c -45.195,-1.6152 -86.165,-19.8427 -116.986,-48.882 31.733,-34.2168 49.794,-78.0035 51.327,-124.6894 z m 78.5,0 64.914,0 c 1.531,46.8934 19.677,90.8037 51.656,125.104 -30.779,28.8318 -71.582,46.9347 -116.57,48.5086 l 0,-173.6126 z m 77.755,0 95.816,0 c -1.575,44.7391 -19.469,85.2944 -47.97,115.9903 -29.536,-31.8973 -46.354,-72.577 -47.846,-115.9903 z m 0,-12.8416 c 1.492,-43.455 18.31,-84.1346 47.846,-115.9903 28.501,30.6959 46.396,71.2925 47.97,115.9903 l -95.816,0 z" fill="#000000"></path></g></svg>