<svg xmlns="http://www.w3.org/2000/svg" xmlns:xlink="http://www.w3.org/1999/xlink" version="1.1" x="0px" y="0px" viewBox="0 0 32 32" enable-background="new 0 0 32 32" xml:space="preserve"><g><path d="M23.1,17.6v3.1c0,0.4-0.3,0.8-0.8,0.8c-0.4,0-0.8-0.3-0.8-0.8v-3.5C19.9,17,18,16.8,16,16.8c-8.7,0-15.5,3.2-15.5,7.3   s6.8,7.3,15.5,7.3c8.7,0,15.5-3.2,15.5-7.3C31.5,21.3,28.1,18.8,23.1,17.6z"></path><path d="M23.1,7.2V1.4c0-0.1,0-0.2-0.1-0.3C23,1,23,1,23,0.9c0-0.1-0.1-0.1-0.2-0.2c0,0,0,0,0,0c0,0,0,0-0.1,0   c-0.1,0-0.1-0.1-0.2-0.1c0,0-0.1,0-0.1,0c0,0,0,0-0.1,0c-0.1,0-0.1,0-0.2,0c0,0-0.1,0-0.1,0l-8.7,3.1c-0.3,0.1-0.5,0.4-0.5,0.7   c0,0.3,0.2,0.6,0.5,0.7l8.2,2.6v9.6c0.5,0.1,1.1,0.2,1.6,0.3V7.2z"></path></g></svg>