<svg xmlns="http://www.w3.org/2000/svg" xmlns:xlink="http://www.w3.org/1999/xlink" version="1.1" x="0px" y="0px" viewBox="0 0 100 100" enable-background="new 0 0 100 100" xml:space="preserve"><path d="M92.195,23.026c-1.566-0.843-7.385-0.775-9.759-0.22c-3.921,0.923-7.659,3.102-14.56,6.87  c-6.644,3.621-14.372,10.434-17.023,15.857c-0.082-0.338-0.19-0.63-0.305-0.814c-0.325-0.514-0.098-0.462,0.014-0.51  c0.111-0.052,0.439-0.303,0.585-0.861c0.104-0.365-0.025-0.961-0.174-1.252c-0.085-0.164-0.187-0.226-0.257-0.31  c0.101-0.117,0.13-0.304-0.013-0.443c0.189,0.181,0.032,0.335,0.171,0.063c0.076-0.15,0.164-0.288,0.251-0.432  c0.318-0.525,0.672-1.032,1.017-1.541c0.972-1.422,1.98-2.817,2.981-4.208c1.511-2.093,3.044-4.172,4.582-6.244  c0.24-0.322-0.23-0.721-0.468-0.403c-1.793,2.412-3.566,4.828-5.321,7.27c-0.995,1.392-1.992,2.781-2.935,4.214  c-0.12,0.186-0.454,0.589-0.648,0.979c-0.048-0.015-0.092-0.031-0.155-0.042c-0.065-0.011-0.113-0.011-0.164-0.013  c-0.046-0.433-0.222-0.927-0.271-1.144c-0.39-1.663-0.841-3.324-1.303-4.968c-0.801-2.896-1.632-5.781-2.484-8.659  c-0.113-0.379-0.693-0.163-0.585,0.216c0.741,2.476,1.451,4.956,2.147,7.445c0.47,1.648,0.93,3.307,1.354,4.971  c0.149,0.602,0.301,1.197,0.423,1.804c0.027,0.161,0.067,0.326,0.082,0.486c0.042,0.306-0.057,0.115,0.187,0.006  c-0.181,0.079-0.217,0.266-0.162,0.41c-0.095,0.058-0.211,0.082-0.351,0.207c-0.241,0.209-0.562,0.734-0.595,1.116  c-0.056,0.563,0.169,0.916,0.257,1.001c0.082,0.083,0.311,0.118-0.17,0.485c-0.133,0.104-0.285,0.275-0.437,0.48  c-0.006-0.076-0.012-0.154-0.019-0.217c-0.648-5.95-6.333-15.187-11.867-20.773c-5.534-5.588-8.492-8.749-11.979-10.757  c-2.115-1.211-7.673-2.946-9.411-2.589c-1.735,0.361-3.753,1.343-3.882,3.489c-0.137,2.157-0.246,3.658-0.028,4.856  c0.226,1.226,1.212,3.553,1.936,4.613c0.735,1.045,2.807,4.013,3.119,5.071c0.315,1.062,0.379,2.073,0.421,3.255  c0.043,1.174,0.509,2.347,0.573,3.859c0.064,1.519,0.502,3.762,1.056,4.878c0.396,0.806,1.612,2.205,2.366,2.678  c0.649,0.416,1.737,0.671,2.932,0.941c0.444,0.103,2.237,0.727,4.684,1.479c-2.856,0.334-5.006,0.68-5.499,0.706  c-1.22,0.056-2.337,0.111-3.048,0.411c-0.825,0.336-2.271,1.496-2.8,2.221c-0.742,1-1.57,3.13-1.902,4.613  c-0.328,1.479-0.993,2.552-1.239,3.7c-0.25,1.155-0.493,2.139-0.986,3.131c-0.495,0.986-3.055,3.542-3.963,4.443  c-0.901,0.917-2.28,3.032-2.718,4.201c-0.428,1.138-0.581,2.64-0.826,4.784c-0.255,2.135,1.559,3.458,3.208,4.12  c1.648,0.659,7.423-0.077,9.723-0.896c3.787-1.362,7.249-3.953,13.683-8.48c6.349-4.47,13.46-12.414,15.256-18.143  c0.016,0.542-0.065,1.115-0.376,1.977c-0.391,1.081-0.514,2.033-0.764,4.067c-0.242,2.04-0.44,3.161-0.698,3.943  c-0.263,0.794-0.768,3.658-0.745,4.626c0.03,0.962,0.474,2.456,1.132,2.578c0.65,0.108,1.586-1.137,1.946-2.033  c0.359-0.898,0.87-3.762,0.899-4.593c0.028-0.829,0.226-1.948,0.696-3.944c0.476-1.997,0.685-2.93,0.69-4.08  c0.008-1.042,0.163-1.634,0.42-2.189c-0.056,0.411-0.079,0.798-0.079,1.06c-0.035,5.988,4.56,15.813,9.421,21.992  c4.865,6.183,7.44,9.658,10.678,12.046c1.967,1.444,7.286,3.807,9.056,3.647c1.77-0.161,3.88-0.907,4.254-3.027  c0.381-2.126,0.664-3.606,0.584-4.82c-0.086-1.244-0.801-3.666-1.402-4.802c-0.613-1.127-2.332-4.309-2.523-5.396  c-0.19-1.088-0.139-2.099-0.046-3.28c0.09-1.169-0.239-2.389-0.127-3.898c0.104-1.518-0.074-3.797-0.5-4.966  c-0.298-0.845-1.349-2.374-2.045-2.932c-0.597-0.49-1.648-0.864-2.805-1.272c-0.463-0.161-2.424-1.11-5.063-2.251  c2.559-0.019,4.456-0.102,4.913-0.071c1.221,0.084,2.332,0.152,3.074-0.064c0.863-0.239,2.426-1.23,3.039-1.884  c0.848-0.913,1.911-2.934,2.409-4.368c0.499-1.432,1.28-2.421,1.654-3.536c0.382-1.121,0.734-2.068,1.337-2.998  c0.603-0.923,3.438-3.171,4.442-3.967c1.001-0.801,2.608-2.75,3.183-3.863c0.555-1.081,0.876-2.55,1.363-4.655  C95.404,25.389,93.751,23.871,92.195,23.026z"></path></svg>