<?xml version="1.0" encoding="iso-8859-1"?>
<!-- Generator: Adobe Illustrator 19.0.0, SVG Export Plug-In . SVG Version: 6.00 Build 0)  -->
<svg xmlns="http://www.w3.org/2000/svg" xmlns:xlink="http://www.w3.org/1999/xlink" version="1.1" id="Layer_1" x="0px" y="0px" viewBox="0 0 511.994 511.994" style="enable-background:new 0 0 511.994 511.994;" xml:space="preserve" width="512px" height="512px">
<g>
	<g>
		<path d="M504.369,313.798c-6.531-11.344-22.577-18.484-50.468-22.5c-19.594-2.828-40.624-3.422-54.812-3.422    c-1.891,0-3.562,0.016-5.016,0.031l-97.234-144.515c-2.375-3.547-6.656-5.328-10.843-4.523    c-14.391,2.766-28.266,4.164-41.242,4.164c-29.617,0-54.921-7.039-75.218-20.922c-14.742-10.086-21.359-20.344-21.734-20.938    c-2.953-5.046-9.359-6.664-14.445-3.75c-0.578,0.328-10.383,6.039-23.367,18.914c-0.102,0.094-0.195,0.195-0.297,0.297    c-5.633,5.609-11.844,12.547-18.164,20.984c-0.258,0.344-0.516,0.703-0.781,1.055h-37.42c-5.89,0-10.664,4.781-10.664,10.671    c0,5.891,4.773,10.664,10.664,10.664h23.531c-5.891,10.305-11.094,21.273-15.562,32.82c-3.852,9.961-7.148,20.375-9.898,31.18    H10.664C4.773,224.008,0,228.789,0,234.68s4.773,10.664,10.664,10.664h36.125c-1.812,10.086-3.188,20.461-4.086,31.11    c-0.352,4.156,1.766,8.156,5.414,10.203l40.507,22.688H32c-5.891,0-10.672,4.781-10.672,10.672S26.109,330.689,32,330.689h94.702    l114.233,63.998h-59.601c-5.891,0-10.672,4.766-10.672,10.656s4.781,10.672,10.672,10.672h100.475h213.325    c4.984,0,9.312-3.453,10.406-8.328C507.057,400.921,519.963,340.811,504.369,313.798z M136.452,121.299    c13.179,15.008,46.125,43.07,108.303,43.07c12.195,0,25.039-1.109,38.273-3.305l4.375,6.508    c-25.492,4.484-49.108,5.414-70.374,2.727c-20.086-2.539-38.132-8.289-53.632-17.086c-16.766-9.507-26.968-20.625-32.195-27.507    C133.124,124.01,134.89,122.541,136.452,121.299z M66.476,270.915l-0.672,1.195l-1.195-0.672    c0.461-4.391,1.016-8.648,1.633-12.812l14.516,8.117C75.671,264.04,69.328,265.868,66.476,270.915z M319.996,394.686h-21.328    c-0.016-5.891-4.781-10.672-10.671-10.672c-4.594,0-8.5,2.906-10,6.984l-15-8.406l0.344-0.625    c2.898-5.141,1.086-11.641-4.047-14.531c-5.132-2.891-11.64-1.078-14.531,4.047l-0.383,0.672l-17.101-9.578l0.406-0.719    c2.898-5.141,1.078-11.641-4.047-14.531c-5.133-2.906-11.641-1.094-14.531,4.047l-0.438,0.781l-17.109-9.594l0.469-0.828    c2.89-5.123,1.078-11.623-4.047-14.529c-5.133-2.891-11.641-1.078-14.531,4.062l-0.5,0.875l-17.102-9.578l0.523-0.938    c2.891-5.125,1.078-11.641-4.055-14.531s-11.632-1.078-14.531,4.047l-0.555,0.984l-2.641-1.469    c-0.008-0.016-0.023-0.016-0.031-0.031l-14.43-8.078l0.586-1.031c2.891-5.125,1.078-11.641-4.055-14.531    c-5.125-2.891-11.633-1.078-14.531,4.047l-0.609,1.094l-17.109-9.594l0.641-1.125c2.859-5.062,1.125-11.461-3.844-14.414    l206.833,115.662c0.016,0.016,0.047,0.016,0.047,0.031c0.094,0.047,0.172,0.078,0.25,0.125c0.203,0.109,0.406,0.203,0.594,0.281    c0.094,0.047,0.188,0.078,0.265,0.125c0.266,0.109,0.547,0.203,0.828,0.297c0.062,0.016,0.125,0.031,0.188,0.047    c0.25,0.094,0.531,0.156,0.781,0.219c0.062,0,0.094,0.016,0.156,0.031c0.312,0.062,0.625,0.109,0.969,0.141    c0.031,0,0.062,0.016,0.109,0.016c0.328,0.031,0.672,0.047,1.016,0.047c0.016,0,0.031,0,0.062,0h37.341    C324.766,384.026,319.996,388.802,319.996,394.686z M362.668,394.686H341.34c0-5.884-4.77-10.66-10.651-10.671h42.631    C367.423,384.026,362.668,388.802,362.668,394.686z M405.34,394.686h-21.344c0-5.884-4.77-10.66-10.635-10.671h42.615    C410.094,384.026,405.34,388.802,405.34,394.686z M447.995,394.686h-21.327c0-5.884-4.77-10.66-10.651-10.671h42.63    C452.765,384.026,447.995,388.802,447.995,394.686z M486.414,394.687h-17.075v-0.001c0-5.884-4.77-10.66-10.651-10.671h29.46    C487.617,387.734,487.023,391.327,486.414,394.687z M490.339,362.687H296.027L70.624,236.634c0.117-0.633,0.188-1.289,0.188-1.953    c0-0.039-0.008-0.07-0.008-0.109c9.117-38.805,24.312-65.914,37.062-83.171c2.789-3.781,5.562-7.218,8.25-10.343    c6.797,8.421,18.133,19.875,35.328,29.898c17.953,10.461,38.727,17.312,61.742,20.359c9.18,1.211,18.734,1.82,28.625,1.82    c18.406,0,38-2.109,58.561-6.304l15.078,22.429l-13.484,6.938c-5.219,2.695-7.281,9.125-4.594,14.359    c1.891,3.68,5.625,5.789,9.5,5.789c1.625,0,3.312-0.383,4.875-1.18l15.688-8.086l6.922,10.273l-13.828,7.117    c-5.219,2.695-7.281,9.125-4.594,14.368c1.891,3.672,5.625,5.781,9.5,5.781c1.625,0,3.312-0.375,4.875-1.18l16.031-8.258    l6.469,9.594l-13.719,7.055c-5.234,2.703-7.297,9.141-4.594,14.375c1.875,3.672,5.625,5.781,9.484,5.781    c1.641,0,3.312-0.375,4.875-1.188l15.938-8.203l14.828,22.047c2.046,3.046,5.53,4.828,9.202,4.703    c0.047,0,3.984-0.125,10.266-0.125c57.233,0,83.279,9.109,86.811,15.25C490.37,332.236,491.245,347.077,490.339,362.687z" fill="#D80027"/>
	</g>
</g>
<g>
</g>
<g>
</g>
<g>
</g>
<g>
</g>
<g>
</g>
<g>
</g>
<g>
</g>
<g>
</g>
<g>
</g>
<g>
</g>
<g>
</g>
<g>
</g>
<g>
</g>
<g>
</g>
<g>
</g>
</svg>
