<svg xmlns="http://www.w3.org/2000/svg" viewBox="0 0 48 48" x="0px" y="0px"><g fill="#000000" fill-rule="evenodd"><path d="M17.7645207 9.10663095C21.1644831 9.87226493 24.4967719 10.9656107 27.7759146 12.3158708 27.8476034 16.1046277 27.6282298 19.4445143 27.3606743 22.7150633L16.6899915 26.0242954C14.4891011 23.3938427 12.57482 20.5393198 10.944958 17.5650982 12.5441588 14.8499806 14.6819747 12.0961798 17.7645207 9.10663095zM9.67354008 5.50180138C11.8174152 4.50771799 14.1794959 3.90265549 16.754818 3.67712555 18.8564975 2.30350959 21.8552362 1.21162357 24.7121304.684657194 19.8573668.378111655 13.7854995 2.2465797 9.67354008 5.50180138zM33.5454771 3.38517742C34.6295696 5.45800916 35.1184698 7.49580713 35.2975459 9.51608821 38.0045651 11.1641354 40.5163747 13.4384114 42.8898439 16.1579082 43.5186906 15.444095 44.2745622 14.7594767 45.0799298 14.1142713 43.1687878 10.2036261 40.5051323 6.93015762 36.829365 4.51355695 35.7538868 3.98002174 34.7968192 3.71434894 33.5454771 3.38517742zM32.0124169 38.7836695C33.7055724 39.6509745 35.7355631 40.2998292 38.2906633 40.6083454 41.1252186 38.2199177 43.3288831 35.5031214 44.7149155 32.3608106 44.5564263 29.8094029 43.8537737 27.4825763 42.6708353 25.3542744 39.9391411 26.7322696 37.160141 27.8759764 34.3485086 28.857652 33.8964019 32.291108 33.0803028 35.5855237 32.0124169 38.7836695zM14.7107378 34.8423697C17.060335 37.475012 19.7942923 39.6498067 22.8140559 41.4841898 21.9123975 43.2185806 20.8791149 44.7324777 19.7479355 46.0823729 16.4090765 45.6160587 13.2603899 44.595554 10.4035687 42.7249693 9.03126087 41.072032 7.94775234 38.8585542 7.19146455 36.0101623 9.69106076 35.8841137 12.1966651 35.5253094 14.7107378 34.8423697zM4.3443528 19.0044025C3.66833166 17.0534591 3.36585889 15.0514248 3.61432414 12.9727541L3.23785567 13.0902632C.736368678 17.8672645-.0508942235 22.8274633.986220985 27.9818076L2.37327543 28.4927168C2.55935973 25.238225 3.16656107 22.0654787 4.3443528 19.0044025z"></path><path fill-rule="nonzero" d="M33.4515808 3.87628178C34.5170579 4.07999472 35.5671668 4.44226421 36.6060302 4.96090645 36.8530945 5.08425085 37.1533701 4.98395605 37.2767145 4.73689175 37.4000589 4.48982745 37.2997641 4.18955186 37.0526998 4.06620746 35.9337394 3.50757759 34.7968855 3.11538255 33.6393733 2.89407306 33.3681439 2.84221559 33.1062302 3.02005171 33.0543727 3.29128116 33.0025153 3.56251061 33.1803514 3.82442431 33.4515808 3.87628178zM44.6665176 13.745269L42.5423533 15.7983943C42.3437992 15.990308 42.3384162 16.3068448 42.5303299 16.5053988 42.7222437 16.7039529 43.0387804 16.7093359 43.2373345 16.5174222L45.3614989 14.4642969C45.5600529 14.2723832 45.565436 13.9558464 45.3735222 13.7572924 45.1816084 13.5587383 44.8650717 13.5533553 44.6665176 13.745269zM27.0515954 23.1080903C29.3502849 24.9157945 31.6222171 26.9217684 34.001319 29.2174567 34.2000337 29.4092042 34.5165658 29.4035562 34.7083133 29.2048416 34.9000608 29.0061269 34.8944128 28.6895948 34.6956982 28.4978473 32.2936292 26.1799972 29.9967997 24.1520406 27.6697533 22.3220363 27.4526905 22.1513367 27.1383469 22.1889215 26.9676473 22.4059843 26.7969478 22.6230471 26.8345326 22.9373907 27.0515954 23.1080903z"></path><path fill-rule="nonzero" d="M42.1771718,25.2749246 C42.1333481,25.5475674 42.3188426,25.8041142 42.5914854,25.8479379 C42.8641282,25.8917616 43.120675,25.706267 43.1644987,25.4336242 C43.6868479,22.183905 43.766699,19.0738292 43.3858072,16.0945018 C43.3729196,15.9936954 43.3296199,15.8992094 43.2616771,15.8236329 C40.460825,12.7080877 37.9047374,10.4831151 35.5528829,9.08620099 C35.3154627,8.94518226 35.0086774,9.02333105 34.8676586,9.2607512 C34.7266399,9.49817135 34.8047887,9.80495669 35.0422089,9.94597542 C37.2686229,11.2683825 39.7163322,13.3911526 42.4131989,16.3758895 C42.7593027,19.2101247 42.6757411,22.1731483 42.1771718,25.2749246 Z"></path><path fill-rule="nonzero" d="M44.2153064 32.3805789C44.2262242 32.6565054 44.4587573 32.8713374 44.7346838 32.8604197 45.0106102 32.849502 45.2254423 32.6169688 45.2145246 32.3410423 45.1277776 30.1486635 44.4161295 27.7594927 43.1191579 25.1328995 42.9988103 24.8891748 42.7058001 24.7862403 42.4594646 24.9011492 38.5815547 26.7100899 36.2734771 27.6983962 34.1923356 28.3826678 33.930009 28.4689198 33.7872724 28.7514985 33.8735244 29.013825 33.9597764 29.2761516 34.2423551 29.4188882 34.5046816 29.3326362 36.5525348 28.6593097 38.7892349 27.7094413 42.435133 26.0155392 43.5390721 28.3505803 44.1394687 30.4639109 44.2153064 32.3805789zM38.3539372 40.1123651C36.2520098 39.8442152 34.2099461 39.2483825 32.2221632 38.3297902 31.9714926 38.2139505 31.6743772 38.3232526 31.5585375 38.5739232 31.4426979 38.8245939 31.5519999 39.1217092 31.8026706 39.2375489 33.8820302 40.1984607 36.0227089 40.8230671 38.2273895 41.1043256 38.5013118 41.1392708 38.7516984 40.9455416 38.7866436 40.6716192 38.8215888 40.3976969 38.6278595 40.1473103 38.3539372 40.1123651z"></path><path fill-rule="nonzero" d="M32.4864277 38.9427725C33.6717434 35.4113957 34.4597039 32.1281874 34.8449484 28.9172136 34.8778433 28.6430375 34.6822463 28.3941072 34.4080702 28.3612122 34.1338941 28.3283173 33.8849638 28.5239143 33.8520689 28.7980904 33.475571 31.9361622 32.7032706 35.1541195 31.5384061 38.6245666 31.450536 38.8863555 31.591525 39.1698102 31.853314 39.2576804 32.1151029 39.3455505 32.3985576 39.2045614 32.4864277 38.9427725zM16.2114341 25.8794408C15.2878581 28.9306675 14.6200937 31.8874917 14.2155799 34.7729534 14.1772423 35.0464216 14.3678533 35.2991901 14.6413214 35.3375277 14.9147896 35.3758653 15.1675581 35.1852543 15.2058957 34.9117861 15.6029768 32.0793427 16.2594211 29.1726439 17.1685489 26.1691499 17.2485498 25.90485 17.099146 25.625739 16.834846 25.545738 16.5705461 25.465737 16.2914351 25.6151409 16.2114341 25.8794408z"></path><path fill-rule="nonzero" d="M19.5570846,45.5467322 C16.0933757,44.993207 13.235941,43.9268062 10.7458809,42.3501323 C9.3206348,40.4940672 8.3199549,38.4587961 7.67649387,35.8887268 C7.60942693,35.6208526 7.33790341,35.458066 7.07002912,35.525133 C6.80215483,35.5921999 6.6393683,35.8637234 6.70643524,36.1315977 C7.39211757,38.8703044 8.47165923,41.0492934 10.008427,43.0313401 C10.0435042,43.0765809 10.0860901,43.1154619 10.134328,43.146288 C12.8241829,44.8652212 15.9185352,46.0100868 19.6733185,46.5767738 C19.8363916,46.6013855 20.0011124,46.5440004 20.113594,46.4233917 C20.9197878,45.558948 21.9338945,44.0513905 23.2490579,41.730712 C23.3814705,41.4970626 23.3056549,41.200543 23.0773433,41.0591254 C19.948451,39.1210703 17.2833013,36.9476001 15.0819931,34.5074526 C14.8970234,34.3024139 14.5808593,34.2861448 14.3758206,34.4711145 C14.170782,34.6560841 14.1545129,34.9722483 14.3394825,35.1772869 C16.5097192,37.5829917 19.1113566,39.7318696 22.1418568,41.6530206 C21.0731829,43.5095682 20.2260995,44.7755576 19.5570846,45.5467322 Z"></path><path fill-rule="nonzero" d="M7.21654768 36.5095327C10.1992677 36.3597122 12.7233811 35.9795763 14.8583078 35.3200967 15.1221492 35.2385961 15.2699655 34.9586411 15.1884648 34.6947997 15.1069641 34.4309584 14.8270091 34.2831421 14.5631678 34.3646428 12.5173139 34.9966077 10.0723202 35.364828 7.16638143 35.5107918 6.89058675 35.5246449 6.67824108 35.7594507 6.69209411 36.0352454 6.70594714 36.3110401 6.940753 36.5233857 7.21654768 36.5095327zM10.8664813 17.0712952C8.02689918 17.5225702 5.82944985 17.9937427 4.18921749 18.5290784 3.92670322 18.6147572 3.78334979 18.8970235 3.86902866 19.1595378 3.95470752 19.4220521 4.23697383 19.5654055 4.4994881 19.4797267 6.07966466 18.9639919 8.23142584 18.5026157 11.0234347 18.0589012 11.2961545 18.0155598 11.4821025 17.7593414 11.438761 17.4866215 11.3954195 17.2139017 11.1392012 17.0279537 10.8664813 17.0712952zM45.0923141 32.7362314C45.5726408 32.4985409 46.007563 32.1718083 46.3960728 31.7516586 46.5835516 31.5489117 46.5711744 31.2325712 46.3684275 31.0450924 46.1656806 30.8576136 45.8493401 30.8699908 45.6618613 31.0727377 45.3190963 31.4434173 44.9380045 31.7163116 44.5134741 31.9031848 44.4011873 31.9526121 44.3109919 32.0415973 44.2600524 32.1532062 42.8829925 35.1703566 40.7829959 37.836243 37.9670435 40.2272021 37.9024491 40.2820477 37.8528532 40.3524103 37.8229132 40.4316825 37.3308533 41.7345088 36.7483692 42.6529122 36.0500692 43.3095477 35.8488978 43.4987161 35.8391674 43.815149 36.0283358 44.0163204 36.2175042 44.2174918 36.5339371 44.2272222 36.7351085 44.0380538 37.5276804 43.2927713 38.1773386 42.2827223 38.7120087 40.906167 41.5347847 38.4894106 43.6671017 35.7892905 45.0923141 32.7362314z"></path><path fill-rule="nonzero" d="M3.88131305 18.8157383C2.77169596 21.5390781 2.09793324 24.7361667 1.87417432 28.4627488 1.85762343 28.7383947 2.06766147 28.975267 2.3433074 28.9918179 2.61895333 29.0083688 2.85582565 28.7983308 2.87237654 28.5226849 3.08987413 24.9003817 3.74116916 21.8099051 4.80739254 19.1930668 4.91158892 18.937337 4.78874682 18.6455591 4.53301703 18.5413628 4.27728724 18.4371664 3.98550943 18.5600085 3.88131305 18.8157383zM3.48213925 13.7069725L3.92015645 13.3683127C4.13861743 13.1994062 4.17878925 12.8853828 4.00988274 12.6669218 3.84097622 12.4484608 3.52695282 12.408289 3.30849184 12.5771955L2.87047464 12.9158553C2.65201367 13.0847619 2.61184184 13.3987853 2.78074836 13.6172462 2.94965487 13.8357072 3.26367828 13.875879 3.48213925 13.7069725zM16.8710116 25.4465069C14.720486 22.7098966 12.9492428 20.1179145 11.523332 17.5760348 13.1725008 14.8870957 15.3311614 12.2078979 18.1155601 9.46268058 18.3122008 9.26880688 18.314444 8.95223233 18.1205703 8.75559155 17.9266966 8.55895077 17.610122 8.55670761 17.4134813 8.75058132 14.4858866 11.6369797 12.2286026 14.4615191 10.5165168 17.3073422 10.4244942 17.4603019 10.4209982 17.6507192 10.5073441 17.8069537 12.0313979 20.5645803 13.9479032 23.3677992 16.2980529 26.3347533 16.4256819 26.495879 16.6389169 26.5624794 16.8355622 26.5026354 20.2319495 25.4690307 23.6930665 24.3966873 27.5111371 23.1918871 27.7020665 23.1316389 27.8386483 22.9633067 27.8582678 22.7640606 28.2016106 19.2772362 28.3436502 15.8002551 28.2758204 12.3061663 28.2704608 12.0300759 28.0423005 11.8106053 27.7662101 11.815965 27.4901197 11.8213246 27.2706491 12.049485 27.2760088 12.3255753 27.3409394 15.6703209 27.2113358 18.9995095 26.8948137 22.3377186 23.3260823 23.4628115 20.065799 24.4731024 16.8710116 25.4465069z"></path><path fill-rule="nonzero" d="M27.9918414,12.7668427 C27.8613566,12.8293192 27.7102073,12.8322158 27.5774246,12.7747844 C24.3941388,11.3979448 21.089077,10.3369713 17.6588592,9.59533911 C17.4780815,9.55625396 17.3336465,9.42056672 17.2833577,9.24258005 C16.7652442,7.40882743 16.4226418,5.61045453 16.2567342,3.72085757 C16.2413926,3.54612573 16.3187336,3.37613231 16.4605401,3.27289724 C18.4276986,1.84080745 21.136348,0.846301074 24.62,0.19321849 C24.6700777,0.183830401 24.7212961,0.182151575 24.771881,0.188240169 C27.6952265,0.540105071 31.5858025,1.71504116 33.789727,2.94889543 C33.8708387,2.99430531 33.9376853,3.06142776 33.9827609,3.14272566 C34.9851377,4.95060347 35.5500418,7.0125395 35.7950716,9.46640803 C35.8198717,9.71477025 35.6577123,9.94338077 35.415113,10.0020697 C33.0652927,10.5705309 30.7015592,11.4694211 27.9918414,12.7668427 Z M34.7532729,9.13679228 C34.5069487,7.05524136 34.0074827,5.29563306 33.176597,3.75280387 C31.0902245,2.62153702 27.4649991,1.53173384 24.7284191,1.19039337 C21.5530034,1.79235115 19.077513,2.68234163 17.2793868,3.91845136 C17.4384932,5.54131868 17.7339275,7.09935967 18.165717,8.68266238 C21.4791937,9.41798273 24.6783418,10.4471852 27.7653033,11.7670358 C30.2869085,10.5706054 32.5286927,9.71098473 34.7532729,9.13679228 Z"></path><path fill-rule="nonzero" d="M9.94566761 5.92536429C11.8528735 4.99958715 14.1373552 4.4220125 16.8009895 4.17498918 17.075952 4.14948938 17.2781815 3.90591657 17.2526817 3.63095408 17.2271819 3.35599159 16.983609 3.15376212 16.7086466 3.17926192 13.906904 3.43909329 11.4886002 4.05461281 9.45335278 5.05289432 9.4187092 5.06988686 9.3861491 5.09083258 9.3563226 5.11531326 6.54723907 7.42092199 4.54171877 9.81380308 3.16152635 12.760683 3.13745711 12.8120738 3.12231203 12.867187 3.11674013 12.9236608 2.90151816 15.1050383 3.1590235 17.1859384 3.87385397 19.1736091 3.96730417 19.4334584 4.25371003 19.5683515 4.51355935 19.4749013 4.77340868 19.3814511 4.90830182 19.0950453 4.81485162 18.835196 4.15959218 17.0131697 3.91801998 15.10958 4.10375035 13.1070836 5.40613856 10.359218 7.29279942 8.11057892 9.94566761 5.92536429zM6.81894371 36.3436712C7.00313562 36.5494088 7.31923593 36.566875 7.52497351 36.3826831 7.73071109 36.1984912 7.7481773 35.8823909 7.56398539 35.6766533 5.55430191 33.4318891 3.97528661 30.9799032 2.83333748 28.2969034 2.77149738 28.1516106 2.64465792 28.044068 2.49120742 28.0068238 1.98608447 27.8842245 1.56149082 27.6920261 1.20951552 27.4330832.987082634 27.2694426.674108292 27.3171032.510467759 27.5395361.346827226 27.761969.394487841 28.0749434.616920723 28.2385839 1.01782208 28.533521 1.48215478 28.7586922 2.00998881 28.913064 3.18742795 31.6110626 4.79353458 34.0813419 6.81894371 36.3436712zM19.5107755 46.5225491C20.6875994 47.1566031 22.0322484 47.5858297 23.5412559 47.8173686 23.814204 47.8592491 24.069423 47.6719319 24.1113035 47.3989839 24.1531841 47.1260358 23.9658669 46.8708168 23.6929188 46.8289363 22.2925171 46.6140617 21.0567698 46.2195977 19.9850955 45.6421966 19.7419929 45.5112168 19.4387391 45.6021102 19.3077593 45.8452129 19.1767794 46.0883155 19.2676729 46.3915693 19.5107755 46.5225491zM31.8290141 38.3185207C28.7642485 39.5269224 25.7313804 40.420555 22.7206629 40.9929895 22.4493804 41.044569 22.271276 41.3063003 22.3228556 41.5775828 22.3744351 41.8488652 22.6361664 42.0269696 22.9074489 41.9753901 25.9813305 41.3909461 29.0742282 40.4796258 32.1958197 39.2488183 32.4527143 39.1475278 32.5788563 38.8571613 32.4775657 38.6002667 32.3762752 38.3433721 32.0859087 38.2172302 31.8290141 38.3185207z"></path><path fill-rule="nonzero" d="M23.999989,1 C11.3059099,1 1,11.3058609 1,24.0001102 C1,36.6938376 11.3061225,47 23.999989,47 C36.6938598,47 47,36.6938332 47,24.0001102 C47,11.3058652 36.6940724,1 23.999989,1 Z M23.999989,0 C37.2463071,0 48,10.753526 48,24.0001101 C48,37.2461706 37.2460965,48 23.999989,48 C10.7538855,48 0,37.2461746 0,24.0001101 C0,10.753522 10.753675,0 23.999989,0 Z"></path></g></svg>