<svg xmlns="http://www.w3.org/2000/svg" xmlns:xlink="http://www.w3.org/1999/xlink" version="1.1" x="0px" y="0px" viewBox="0 0 100 100" enable-background="new 0 0 100 100" xml:space="preserve"><g><path fill="#000000" d="M88.75,11.112c-8.672-8.672-24.834-6.569-36.099,4.697c-6.176,6.176-9.591,13.822-9.994,20.9   c-0.84,3.369-2.448,9.651-3.498,12.667c-1.473,4.236-5.802,13.537-6.262,14.55c0.46,0.461,3.223,3.223,3.223,3.223   s9.577-4.236,18.418-7.367c2.118-0.645,7.92-2.579,9.209-2.579c0-0.008,0-0.023,0-0.033c6.91-0.556,14.303-3.955,20.306-9.959   C95.319,35.946,97.421,19.784,88.75,11.112z M66.953,53.888l-3.08-3.08l3.523-3.523l3.261,3.261l-3.234,3.234   C67.266,53.818,67.11,53.852,66.953,53.888z M49.912,49.95c-0.075-0.075-0.134-0.161-0.207-0.237l2.25-2.25l3.261,3.261   l-1.795,1.795C52.142,51.838,50.957,50.996,49.912,49.95z M67.33,9.794l2.959,2.959l-3.198,3.198l-3.261-3.261l2.544-2.544   C66.694,10.03,67.012,9.899,67.33,9.794z M81.117,9.558l-2.724,2.724l-3.261-3.261l0.477-0.477   C77.544,8.607,79.393,8.949,81.117,9.558z M82.745,10.239l2.662,2.662l-3.198,3.198l-3.261-3.261l2.991-2.991   C82.216,9.962,82.476,10.108,82.745,10.239z M86.792,13.07c0.315,0.315,0.588,0.658,0.869,0.996l-1.155-1.155l0.048-0.048   C86.631,12.936,86.717,12.995,86.792,13.07z M91.165,22.405l-1.325,1.325L86.58,20.47l3.144-3.144   C90.458,18.9,90.939,20.606,91.165,22.405z M81.747,45.577l-2.505-2.505l3.198-3.198l2.335,2.335   c-0.826,1.045-1.704,2.069-2.679,3.045C81.982,45.367,81.861,45.465,81.747,45.577z M45.387,38.768l2.678-2.678l3.261,3.261   l-3.198,3.198l-2.664-2.664C45.431,39.513,45.399,39.144,45.387,38.768z M85.48,20.459l-3.198,3.198l-3.261-3.261l3.198-3.198   L85.48,20.459z M82.764,16.654l3.198-3.198l3.261,3.261l-3.198,3.198L82.764,16.654z M60.236,31.55l3.198-3.198l3.261,3.261   l-3.198,3.198L60.236,31.55z M62.952,35.356l-3.198,3.198l-3.261-3.261l3.198-3.198L62.952,35.356z M71.536,27.881l3.198-3.198   l3.261,3.261l-3.198,3.198L71.536,27.881z M74.252,31.686l-3.198,3.198l-3.261-3.261l3.198-3.198L74.252,31.686z M75.279,24.139   l3.198-3.198l3.261,3.261l-3.198,3.198L75.279,24.139z M74.724,23.583l-3.261-3.261l3.198-3.198l3.261,3.261L74.724,23.583z    M74.179,24.128l-3.198,3.198l-3.261-3.261l3.198-3.198L74.179,24.128z M70.437,27.871l-3.198,3.198l-3.261-3.261l3.198-3.198   L70.437,27.871z M67.249,32.168l3.261,3.261l-3.198,3.198l-3.261-3.261L67.249,32.168z M71.065,35.984l3.261,3.261l-3.198,3.198   l-3.261-3.261L71.065,35.984z M71.61,35.44l3.198-3.198l3.261,3.261L74.871,38.7L71.61,35.44z M78.624,36.058l3.261,3.261   l-3.198,3.198l-3.261-3.261L78.624,36.058z M78.613,34.958l-3.261-3.261l3.198-3.198l3.261,3.261L78.613,34.958z M79.095,27.954   l3.198-3.198l3.261,3.261l-3.198,3.198L79.095,27.954z M78.466,19.841l-3.261-3.261l3.198-3.198l3.261,3.261L78.466,19.841z    M74.65,16.025l-3.261-3.261l3.198-3.198l3.261,3.261L74.65,16.025z M74.106,16.57l-3.198,3.198l-3.261-3.261l3.198-3.198   L74.106,16.57z M70.363,20.312l-3.198,3.198l-3.261-3.261l3.198-3.198L70.363,20.312z M63.35,19.694l-3.261-3.261l3.198-3.198   l3.261,3.261L63.35,19.694z M63.36,20.794l3.261,3.261l-3.198,3.198l-3.261-3.261L63.36,20.794z M62.878,27.797l-3.198,3.198   l-3.261-3.261l3.198-3.198L62.878,27.797z M59.136,31.54l-3.198,3.198l-3.261-3.261l3.198-3.198L59.136,31.54z M55.393,35.282   l-3.523,3.523l-3.261-3.261l3.523-3.523L55.393,35.282z M51.881,39.905l3.261,3.261l-3.198,3.198l-3.261-3.261L51.881,39.905z    M52.426,39.36l3.523-3.523l3.261,3.261l-3.523,3.523L52.426,39.36z M59.764,39.653l3.261,3.261l-3.523,3.523l-3.261-3.261   L59.764,39.653z M60.309,39.109l3.198-3.198l3.261,3.261l-3.198,3.198L60.309,39.109z M67.323,39.727l3.261,3.261l-3.198,3.198   l-3.261-3.261L67.323,39.727z M71.139,43.543l3.261,3.261l-3.198,3.198l-3.261-3.261L71.139,43.543z M71.683,42.998l3.198-3.198   l3.261,3.261l-3.198,3.198L71.683,42.998z M78.697,43.616l2.485,2.485c-1.132,1.054-2.304,2.021-3.515,2.881l-2.168-2.168   L78.697,43.616z M82.429,38.774l-3.261-3.261l3.198-3.198l3.261,3.261L82.429,38.774z M82.911,31.77l3.198-3.198l3.261,3.261   l-3.198,3.198L82.911,31.77z M86.098,27.473l-3.261-3.261l3.198-3.198l3.261,3.261L86.098,27.473z M85.951,12.356l-0.155-0.155   c0.056,0.047,0.11,0.097,0.166,0.145L85.951,12.356z M74.033,9.011l-3.198,3.198l-2.656-2.656c1.824-0.532,3.642-0.87,5.415-0.98   L74.033,9.011z M63.276,12.136l-0.443-0.443c0.556-0.29,1.118-0.543,1.68-0.794L63.276,12.136z M62.732,12.681l-3.198,3.198   l-1.274-1.274c1.26-0.95,2.558-1.784,3.88-2.516L62.732,12.681z M59.544,16.978l3.261,3.261l-3.198,3.198l-3.261-3.261   L59.544,16.978z M59.062,23.981l-3.198,3.198l-3.261-3.261l3.198-3.198L59.062,23.981z M55.32,27.724l-3.198,3.198l-3.261-3.261   l3.198-3.198L55.32,27.724z M48.306,27.106l-0.204-0.204c0.661-1.377,1.442-2.733,2.337-4.059l1.064,1.064L48.306,27.106z    M47.762,27.651l-0.021,0.021c0.004-0.01,0.009-0.019,0.014-0.029L47.762,27.651z M48.317,28.206l3.261,3.261l-3.523,3.523   l-2.081-2.081c0.254-1.123,0.602-2.249,1.015-3.375L48.317,28.206z M47.51,35.534l-2.121,2.121   c0.026-1.257,0.165-2.537,0.409-3.832L47.51,35.534z M47.583,43.092L46.4,44.275c-0.361-1.021-0.646-2.077-0.813-3.18   L47.583,43.092z M48.139,43.647l3.261,3.261l-2.212,2.212c-1.042-1.212-1.889-2.555-2.498-4.023L48.139,43.647z M52.499,46.919   l3.198-3.198l3.261,3.261l-3.198,3.198L52.499,46.919z M59.513,47.537l3.261,3.261l-3.198,3.198l-3.261-3.261L59.513,47.537z    M60.057,46.992l3.523-3.523l3.261,3.261l-3.523,3.523L60.057,46.992z M71.212,51.101l1.007,1.007   c-1.077,0.482-2.16,0.895-3.245,1.231L71.212,51.101z M71.757,50.556l3.198-3.198l2.063,2.063   c-1.325,0.896-2.681,1.676-4.059,2.337L71.757,50.556z M85.257,41.602l-2.273-2.273l3.198-3.198l1.591,1.591   C87.041,39.043,86.207,40.342,85.257,41.602z M86.727,35.586l3.198-3.198l0.143,0.143c-0.493,1.508-1.126,3.015-1.899,4.497   L86.727,35.586z M89.914,31.289l-3.261-3.261l3.198-3.198l1.437,1.437c-0.088,1.416-0.31,2.86-0.668,4.314L89.914,31.289z    M90.396,24.286l0.872-0.872c0.043,0.589,0.055,1.187,0.047,1.791L90.396,24.286z M57.653,15.087l1.336,1.336l-3.198,3.198   l-1.506-1.506c0.111-0.114,0.21-0.235,0.323-0.348C55.584,16.791,56.608,15.913,57.653,15.087z M53.761,18.68l1.486,1.486   l-3.198,3.198l-1.169-1.169C51.74,20.984,52.707,19.812,53.761,18.68z M53.617,57.204c-4.697,0.829-16.76,6.262-17.589,6.723   c3.407-7.459,6.907-16.668,6.907-16.668l1.486-0.461c0.864,1.884,2.033,3.612,3.533,5.112c1.726,1.726,3.751,3.017,5.972,3.902   C53.829,56.209,53.723,56.674,53.617,57.204z M54.167,52.883l1.604-1.604l2.996,2.996C57.14,54.028,55.603,53.551,54.167,52.883z    M60.255,54.426l3.073-3.073l2.711,2.711C64.065,54.435,62.121,54.563,60.255,54.426z"></path><rect x="30.506" y="66.127" transform="matrix(-0.7071 -0.7071 0.7071 -0.7071 8.6316 137.7818)" fill="#000000" width="4.689" height="1.953"></rect><rect x="19.157" y="65.158" transform="matrix(-0.7071 -0.7071 0.7071 -0.7071 -17.9566 149.0546)" fill="#000000" width="5.47" height="26.177"></rect><rect x="5.692" y="88.459" transform="matrix(-0.7071 -0.7071 0.7071 -0.7071 -46.3297 160.8071)" fill="#000000" width="8.895" height="3.079"></rect></g></svg>